<svg width="3683" height="1018" viewBox="0 0 3683 1018" fill="none" xmlns="http://www.w3.org/2000/svg">
<g clip-path="url(#clip0_5_13)">
<mask id="mask0_5_13" style="mask-type:luminance" maskUnits="userSpaceOnUse" x="0" y="0" width="3683" height="1018">
<path d="M0 0H3683V1018H0V0Z" fill="white"/>
</mask>
<g mask="url(#mask0_5_13)">
<path d="M-198.402 182.916C-183.359 193.619 -55.4766 222.164 -21.625 232.867C12.2227 243.571 130.223 276.922 173.953 275.68C217.688 274.447 414.672 322.067 471.09 332.77C527.508 343.48 668.781 346.115 744.832 344.797C820.883 343.48 926.195 322.067 948.762 332.77C971.328 343.48 1016.46 353.88 1039.03 345.108C1061.6 336.342 1133.06 318.502 1148.11 318.502C1163.15 318.502 1242.14 329.204 1242.14 329.204C1242.14 329.204 1279.75 325.639 1298.56 322.067C1314.78 318.988 1331.29 316.881 1347.74 315.322C1355.51 314.588 1371.06 310.977 1378.08 315.562C1383.08 318.831 1382.65 325.132 1385.52 329.642C1388.62 334.518 1393.78 337.394 1399.14 339.724C1411.21 344.975 1424.78 346.279 1437.72 348.395C1516.7 361.322 1606.97 375.591 1629.54 375.591C1652.11 375.591 1678.44 368.453 1734.85 375.591C1791.27 382.729 1874.02 364.887 1949.24 375.591C2024.47 386.294 2073.25 368.453 2139.13 375.591C2205 382.729 2272.71 350.611 2299.03 339.909C2325.36 329.204 2366.74 311.363 2366.74 311.363L2408.11 318.502C2408.11 318.502 2430.68 329.204 2449.48 322.067C2468.29 314.928 2468.29 314.928 2468.29 314.928C2468.29 314.928 2551.03 307.798 2566.08 307.798C2581.12 307.798 2667.63 332.77 2686.44 336.342C2705.24 339.909 2735.33 347.046 2780.47 339.909C2825.6 332.77 2855.69 318.502 2878.26 304.226C2900.83 289.956 2923.39 272.115 2949.72 254.274C2975.94 236.509 3039.46 151.515 3051.13 147.278C3069.8 140.507 3084.96 117.143 3098.3 103.894C3113.39 88.909 3132.54 78.9529 3150.08 66.9194C3170.01 53.2393 3177.31 38.5268 3187.78 17.6962C3201.3 -9.17005 3221.38 2.99008 3248.94 3.4081C3268.09 3.71843 3275.23 28.2794 3285.2 39.7049C3290.31 45.5632 3314.56 58.325 3314.56 65.1651C3340.18 79.0606 3408.56 79.428 3412.2 79.4343C3418.24 79.4533 3449.93 112.298 3455.74 116.858C3468.77 127.081 3481.89 137.208 3495.1 147.233C3502.43 155.771 3509.79 164.295 3517.11 172.853C3520.07 176.316 3526.4 187.343 3530.65 189.078C3538.75 192.379 3549.72 185.931 3559.2 186.513C3576.7 187.589 3607.64 219.6 3622.98 229.295C3668.11 257.846 3605.17 221.208 3803.51 336.342C4001.85 451.471 4183.4 568.809 4183.4 568.809L3396.32 1078.51L-446.645 1157L-198.402 182.916Z" fill="#333333"/>
</g>
</g>
<defs>
<clipPath id="clip0_5_13">
<rect width="3683" height="1018" fill="white"/>
</clipPath>
</defs>
</svg>
