<svg width="3683" height="1076" viewBox="0 0 3683 1076" fill="none" xmlns="http://www.w3.org/2000/svg">
<mask id="mask0_1_15" style="mask-type:luminance" maskUnits="userSpaceOnUse" x="0" y="0" width="3683" height="1076">
<path d="M0 0H3682.84V1075.03H0V0Z" fill="white"/>
</mask>
<g mask="url(#mask0_1_15)">
<path d="M-168.312 105.988C-145.746 109.754 -8.46094 102.23 0 105.988C8.46094 109.754 94.9688 104.906 94.9688 104.906L204.047 136.078L245.418 154.887C245.418 154.887 320.641 143.602 331.926 154.887C343.211 166.168 395.867 136.078 395.867 136.078C395.867 136.078 430.273 131.945 459.484 157.418C488.699 182.891 595.211 201.609 595.211 201.609C595.211 201.609 640.344 226.348 659.148 222.59C677.957 218.828 723.09 206.961 734.375 201.609C745.656 196.258 775.746 219.605 790.793 222.977C805.836 226.348 845.203 237.633 870.656 241.395C896.105 245.156 922.434 241.395 922.434 241.395C922.434 241.395 1005.18 222.008 1050.32 201.609C1066.39 194.348 1138.11 126.906 1151.87 136.078C1163.15 143.602 1166.91 132.32 1178.2 136.078C1189.48 139.84 1242.14 158.648 1253.42 136.078C1264.7 113.512 1279.75 90.9453 1291.03 83.4219C1302.32 75.9023 1358.73 45.8086 1370.02 45.8086C1381.3 45.8086 1396.35 57.0898 1422.67 75.9023C1448.62 94.4336 1479.47 103.895 1508.94 115.121C1522.67 120.352 1537.83 125.348 1550.2 133.422C1554.98 136.539 1556.02 140.719 1561.86 143.109C1567.27 145.316 1574.83 142.93 1580.64 144.438C1591.93 147.363 1588.17 141.512 1610.74 144.438C1658.53 150.637 1704.66 164.199 1752.63 169.688C1784.88 173.379 1805.43 202.914 1841.42 201.609C1885.3 200.02 1964.29 201.609 1964.29 201.609C1964.29 201.609 1990.62 188.156 2009.42 201.609C2028.23 215.066 2062.08 201.609 2062.08 201.609C2062.08 201.609 2141.06 195.68 2159.87 201.609C2178.68 207.543 2201.24 196.258 2223.82 181.211C2243.26 168.25 2263.33 156.188 2283.21 143.938C2299.42 133.953 2314.5 117.516 2334.88 117.492C2350.13 117.473 2374.54 135.383 2385.48 117.379C2393.14 104.77 2400.42 91.7539 2408.69 79.5312C2422.33 59.3594 2483.91 65.9883 2502.14 79.6602C2517.18 90.9453 2543.51 102.23 2566.08 113.512C2588.65 124.797 2675.15 144.438 2675.15 144.438L2705.24 136.078C2705.24 136.078 2727.81 137.754 2746.62 144.438C2765.42 151.125 2769.18 152.797 2799.28 144.438C2821.41 138.289 2845.14 128.293 2863.81 114.699C2879.75 103.105 2887.9 81.5039 2903.92 71C2920.8 59.9297 2932.65 77.2031 2945.96 87.1836C2961.01 98.4688 2991.09 102.23 3009.9 102.23C3028.71 102.23 3070.08 98.4688 3070.08 98.4688C3070.08 98.4688 3066.15 105.988 3137.7 109.754C3209.24 113.512 3276.95 143.602 3318.32 136.078C3359.69 128.559 3389.78 151.125 3419.87 121.035C3449.96 90.9453 3487.57 45.8086 3487.57 45.8086H3536.47L3551.51 21.5703L3611.69 0.679688C3611.69 0.679688 3652.44 30.7695 3682.84 45.8086C3713.25 60.8594 3833.6 136.078 3833.6 136.078L3949.21 1328.38L72.4023 1503.03L-168.312 105.988Z" fill="#3D3D3D"/>
</g>
</svg>
