<svg width="3683" height="1189" viewBox="0 0 3683 1189" fill="none" xmlns="http://www.w3.org/2000/svg">
<mask id="mask0_1_10" style="mask-type:luminance" maskUnits="userSpaceOnUse" x="0" y="0" width="3683" height="1189">
<path d="M0 0H3682.84V1188.03H0V0Z" fill="white"/>
</mask>
<g mask="url(#mask0_1_10)">
<path d="M3826.88 106.148C3804.31 109.922 3667.02 102.391 3658.56 106.148C3650.1 109.922 3563.59 105.07 3563.59 105.07L3454.52 136.238L3413.14 155.051C3413.14 155.051 3337.92 143.77 3326.64 155.051C3315.35 166.328 3262.69 136.238 3262.69 136.238C3262.69 136.238 3228.29 132.109 3199.08 157.578C3169.86 183.051 3063.35 201.773 3063.35 201.773C3063.35 201.773 3018.22 226.512 2999.41 222.754C2980.6 218.988 2935.47 207.125 2924.19 201.773C2912.9 196.422 2882.81 219.77 2867.77 223.141C2852.72 226.512 2813.36 237.797 2787.91 241.559C2762.46 245.32 2736.13 241.559 2736.13 241.559C2736.13 241.559 2653.38 222.172 2608.24 201.773C2592.17 194.512 2520.45 127.07 2506.69 136.238C2495.41 143.77 2491.65 132.48 2480.37 136.238C2469.08 140 2416.43 158.809 2405.14 136.238C2393.86 113.68 2378.81 91.1094 2367.53 83.5898C2356.25 76.0586 2299.83 45.9688 2288.54 45.9688C2277.26 45.9688 2262.22 57.2617 2235.89 76.0586C2209.94 94.6016 2179.09 104.059 2149.62 115.289C2135.89 120.52 2120.73 125.512 2108.36 133.578C2103.58 136.699 2102.55 140.879 2096.7 143.27C2091.29 145.48 2083.73 143.09 2077.92 144.602C2066.63 147.531 2070.39 141.68 2047.82 144.602C2000.03 150.801 1953.91 164.359 1905.93 169.852C1873.68 173.539 1853.13 203.078 1817.14 201.773C1773.26 200.184 1694.27 201.773 1694.27 201.773C1694.27 201.773 1667.95 188.32 1649.14 201.773C1630.33 215.23 1596.48 201.773 1596.48 201.773C1596.48 201.773 1517.5 195.844 1498.69 201.773C1479.89 207.707 1457.32 196.422 1434.75 181.371C1415.3 168.41 1395.24 156.352 1375.35 144.102C1359.15 134.121 1344.06 117.68 1323.68 117.648C1308.43 117.641 1284.02 135.539 1273.08 117.539C1265.42 104.93 1258.14 91.9219 1249.87 79.6914C1236.23 59.5312 1174.65 66.1484 1156.42 79.8281C1141.38 91.1094 1115.05 102.391 1092.48 113.68C1069.91 124.961 983.406 144.602 983.406 144.602L953.316 136.238C953.316 136.238 930.75 137.922 911.945 144.602C893.137 151.289 889.379 152.961 859.281 144.602C837.156 138.449 813.422 128.461 794.746 114.859C778.812 103.27 770.66 81.6719 754.641 71.1602C737.762 60.0898 725.91 77.3711 712.602 87.3516C697.555 98.6289 667.469 102.391 648.66 102.391C629.855 102.391 588.48 98.6289 588.48 98.6289C588.48 98.6289 592.41 106.148 520.863 109.922C449.316 113.68 381.617 143.77 340.242 136.238C298.867 128.719 268.781 151.289 238.691 121.199C208.602 91.1094 170.988 45.9688 170.988 45.9688H122.094L107.047 21.7383L46.8672 0.839844C46.8672 0.839844 6.12109 30.9297 -24.2812 45.9688C-54.6836 61.0195 -175.043 136.238 -175.043 136.238L-290.648 1328.54L3586.16 1503.19L3826.88 106.148Z" fill="#474747"/>
</g>
</svg>
